<svg width="141" height="24" viewBox="0 0 141 24" fill="none" xmlns="http://www.w3.org/2000/svg">
<g id="Group 660">
<path id="Vector" d="M12 0C5.3725 0 0 5.3725 0 12C0 18.6275 5.3725 24 12 24C18.6275 24 24 18.6275 24 12C24 5.3725 18.6275 0 12 0ZM9.0625 16.9738H6.6325V9.15375H9.0625V16.9738ZM7.8325 8.19375C7.065 8.19375 6.56875 7.65 6.56875 6.9775C6.56875 6.29125 7.08 5.76375 7.86375 5.76375C8.6475 5.76375 9.1275 6.29125 9.1425 6.9775C9.1425 7.65 8.6475 8.19375 7.8325 8.19375ZM17.9375 16.9738H15.5075V12.64C15.5075 11.6313 15.155 10.9462 14.2763 10.9462C13.605 10.9462 13.2063 11.41 13.03 11.8563C12.965 12.015 12.9488 12.24 12.9488 12.4638V16.9725H10.5175V11.6475C10.5175 10.6713 10.4862 9.855 10.4537 9.1525H12.565L12.6763 10.2388H12.725C13.045 9.72875 13.8288 8.97625 15.14 8.97625C16.7388 8.97625 17.9375 10.0475 17.9375 12.35V16.9738Z" fill="#333333" fill-opacity="0.8"/>
<path id="Vector_2" d="M90 0C83.3732 0 78 5.37321 78 12C78 18.6268 83.3732 24 90 24C96.6268 24 102 18.6268 102 12C102 5.37321 96.6268 0 90 0ZM95.767 9.04554C95.775 9.17143 95.775 9.30268 95.775 9.43125C95.775 13.3634 92.7804 17.8929 87.308 17.8929C85.6205 17.8929 84.0563 17.4027 82.7384 16.5589C82.9795 16.5857 83.2098 16.5964 83.4563 16.5964C84.8491 16.5964 86.1295 16.125 87.15 15.3268C85.8429 15.3 84.7446 14.4429 84.3696 13.2643C84.8277 13.3313 85.2402 13.3313 85.7116 13.2107C85.0386 13.074 84.4336 12.7084 83.9995 12.1762C83.5654 11.644 83.329 10.9779 83.3304 10.2911V10.2536C83.7241 10.4759 84.1875 10.6125 84.6723 10.6313C84.2648 10.3596 83.9305 9.99164 83.6992 9.5599C83.4679 9.12817 83.3468 8.64603 83.3464 8.15625C83.3464 7.60179 83.4911 7.09554 83.7509 6.65625C84.498 7.5759 85.4302 8.32806 86.487 8.86384C87.5437 9.39961 88.7014 9.70702 89.8848 9.76607C89.4643 7.74375 90.975 6.10714 92.7911 6.10714C93.6482 6.10714 94.4196 6.46607 94.9634 7.04464C95.6357 6.91875 96.2786 6.66696 96.8518 6.32946C96.6295 7.01786 96.1634 7.59911 95.5446 7.96607C96.1446 7.90179 96.7232 7.73571 97.2589 7.50268C96.8545 8.09732 96.3482 8.625 95.767 9.04554Z" fill="#333333" fill-opacity="0.8"/>
<path id="Vector_3" d="M132.84 12C132.84 12.7595 132.615 13.5019 132.193 14.1334C131.771 14.7649 131.171 15.2571 130.47 15.5477C129.768 15.8383 128.996 15.9144 128.251 15.7662C127.506 15.618 126.822 15.2523 126.285 14.7153C125.748 14.1783 125.382 13.494 125.234 12.7491C125.086 12.0043 125.162 11.2322 125.452 10.5305C125.743 9.82883 126.235 9.2291 126.867 8.80716C127.498 8.38521 128.241 8.16 129 8.16C130.017 8.16316 130.992 8.56875 131.712 9.28821C132.431 10.0077 132.837 10.9825 132.84 12ZM141 6.72V17.28C141 19.0623 140.292 20.7715 139.032 22.0318C137.772 23.292 136.062 24 134.28 24H123.72C121.938 24 120.228 23.292 118.968 22.0318C117.708 20.7715 117 19.0623 117 17.28V6.72C117 4.93775 117.708 3.22849 118.968 1.96824C120.228 0.707998 121.938 0 123.72 0H134.28C136.062 0 137.772 0.707998 139.032 1.96824C140.292 3.22849 141 4.93775 141 6.72ZM134.76 12C134.76 10.8608 134.422 9.74714 133.789 8.79992C133.156 7.85269 132.257 7.11441 131.204 6.67845C130.152 6.24249 128.994 6.12843 127.876 6.35068C126.759 6.57293 125.733 7.12151 124.927 7.92706C124.122 8.73262 123.573 9.75895 123.351 10.8763C123.128 11.9936 123.242 13.1518 123.678 14.2043C124.114 15.2568 124.853 16.1563 125.8 16.7893C126.747 17.4222 127.861 17.76 129 17.76C130.528 17.76 131.993 17.1531 133.073 16.0729C134.153 14.9927 134.76 13.5276 134.76 12ZM136.68 5.76C136.68 5.47519 136.596 5.19679 136.437 4.95998C136.279 4.72317 136.054 4.5386 135.791 4.42961C135.528 4.32062 135.238 4.29211 134.959 4.34767C134.68 4.40323 134.423 4.54038 134.222 4.74177C134.02 4.94315 133.883 5.19974 133.828 5.47907C133.772 5.7584 133.801 6.04794 133.91 6.31106C134.019 6.57419 134.203 6.79909 134.44 6.95732C134.677 7.11555 134.955 7.2 135.24 7.2C135.622 7.2 135.988 7.04829 136.258 6.77823C136.528 6.50818 136.68 6.14191 136.68 5.76Z" fill="#333333" fill-opacity="0.8"/>
<path id="Vector_4" d="M63 12C63 5.376 57.624 0 51 0C44.376 0 39 5.376 39 12C39 17.808 43.128 22.644 48.6 23.76V15.6H46.2V12H48.6V9C48.6 6.684 50.484 4.8 52.8 4.8H55.8V8.4H53.4C52.74 8.4 52.2 8.94 52.2 9.6V12H55.8V15.6H52.2V23.94C58.26 23.34 63 18.228 63 12Z" fill="#333333" fill-opacity="0.8"/>
</g>
</svg>
