<svg width="890" height="340" viewBox="0 0 890 340" fill="none" xmlns="http://www.w3.org/2000/svg">
<path d="M40 42C40 40.8954 40.8954 40 42 40H848C849.105 40 850 40.8954 850 42V298C850 299.105 849.105 300 848 300H42C40.8954 300 40 299.105 40 298V42Z" fill="#404040"/>
<path d="M42 167H848V-87H42V167ZM723 42V298H977V42H723ZM848 173H42V427H848V173ZM167 298V42H-87V298H167ZM42 173C111.036 173 167 228.965 167 298H-87C-87 369.244 -29.2456 427 42 427V173ZM723 298C723 228.965 778.964 173 848 173V427C919.245 427 977 369.244 977 298H723ZM848 167C778.964 167 723 111.035 723 42H977C977 -29.2438 919.246 -87 848 -87V167ZM42 -87C-29.2454 -87 -87 -29.2441 -87 42H167C167 111.035 111.036 167 42 167V-87Z" fill="#A1DFBA" fill-opacity="0.04"/>
<rect x="67" y="77" width="759" height="169" rx="25" fill="#1C3151"/>
<g filter="url(#filter0_d_0_1)">
<rect x="312" y="152" width="445" height="42" rx="9" fill="#D9D9D9"/>
</g>
<rect x="620" y="162" width="127" height="22" rx="9" fill="#318C9F"/>
<path d="M661.031 165.091V176H659.039L654.293 169.134H654.213V176H651.906V165.091H653.93L658.639 171.952H658.735V165.091H661.031ZM665.991 176.16C665.163 176.16 664.448 175.984 663.844 175.632C663.244 175.277 662.78 174.784 662.454 174.152C662.127 173.516 661.964 172.779 661.964 171.941C661.964 171.096 662.127 170.357 662.454 169.725C662.78 169.089 663.244 168.596 663.844 168.244C664.448 167.889 665.163 167.712 665.991 167.712C666.818 167.712 667.532 167.889 668.132 168.244C668.736 168.596 669.201 169.089 669.528 169.725C669.854 170.357 670.018 171.096 670.018 171.941C670.018 172.779 669.854 173.516 669.528 174.152C669.201 174.784 668.736 175.277 668.132 175.632C667.532 175.984 666.818 176.16 665.991 176.16ZM666.001 174.402C666.378 174.402 666.692 174.295 666.944 174.082C667.196 173.866 667.386 173.571 667.514 173.198C667.645 172.825 667.711 172.401 667.711 171.925C667.711 171.449 667.645 171.025 667.514 170.652C667.386 170.279 667.196 169.984 666.944 169.768C666.692 169.551 666.378 169.443 666.001 169.443C665.621 169.443 665.302 169.551 665.043 169.768C664.787 169.984 664.593 170.279 664.462 170.652C664.334 171.025 664.27 171.449 664.27 171.925C664.27 172.401 664.334 172.825 664.462 173.198C664.593 173.571 664.787 173.866 665.043 174.082C665.302 174.295 665.621 174.402 666.001 174.402ZM675.245 167.818V169.523H670.318V167.818H675.245ZM671.436 165.858H673.706V173.486C673.706 173.695 673.738 173.859 673.802 173.976C673.865 174.089 673.954 174.169 674.068 174.216C674.185 174.262 674.32 174.285 674.473 174.285C674.579 174.285 674.686 174.276 674.792 174.258C674.899 174.237 674.98 174.221 675.037 174.21L675.394 175.899C675.281 175.934 675.121 175.975 674.915 176.021C674.709 176.071 674.458 176.101 674.164 176.112C673.617 176.133 673.137 176.06 672.726 175.893C672.317 175.727 671.999 175.467 671.772 175.116C671.545 174.764 671.433 174.32 671.436 173.784V165.858ZM676.123 176V167.818H678.392V176H676.123ZM677.263 166.763C676.926 166.763 676.636 166.652 676.395 166.428C676.157 166.201 676.038 165.929 676.038 165.613C676.038 165.3 676.157 165.032 676.395 164.809C676.636 164.581 676.926 164.468 677.263 164.468C677.6 164.468 677.888 164.581 678.126 164.809C678.368 165.032 678.488 165.3 678.488 165.613C678.488 165.929 678.368 166.201 678.126 166.428C677.888 166.652 677.6 166.763 677.263 166.763ZM684.01 167.818V169.523H678.96V167.818H684.01ZM680.116 176V167.227C680.116 166.634 680.232 166.142 680.462 165.751C680.697 165.361 681.016 165.068 681.421 164.873C681.826 164.677 682.286 164.58 682.801 164.58C683.149 164.58 683.467 164.606 683.754 164.659C684.045 164.713 684.262 164.761 684.404 164.803L683.999 166.508C683.911 166.479 683.8 166.453 683.669 166.428C683.541 166.403 683.41 166.391 683.275 166.391C682.941 166.391 682.708 166.469 682.577 166.625C682.446 166.778 682.38 166.993 682.38 167.27V176H680.116ZM686.197 179.068C685.91 179.068 685.64 179.045 685.388 178.999C685.139 178.956 684.933 178.901 684.77 178.834L685.281 177.14C685.547 177.222 685.787 177.266 686 177.273C686.217 177.28 686.403 177.23 686.559 177.124C686.719 177.017 686.849 176.836 686.948 176.581L687.081 176.234L684.146 167.818H686.533L688.227 173.827H688.312L690.022 167.818H692.424L689.244 176.884C689.091 177.325 688.884 177.708 688.621 178.035C688.362 178.365 688.033 178.619 687.635 178.797C687.238 178.978 686.758 179.068 686.197 179.068ZM695.9 165.091H698.744L701.748 172.42H701.876L704.88 165.091H707.725V176H705.488V168.9H705.397L702.574 175.947H701.051L698.227 168.873H698.137V176H695.9V165.091ZM712.711 176.16C711.87 176.16 711.145 175.989 710.538 175.648C709.934 175.304 709.469 174.817 709.142 174.189C708.816 173.557 708.652 172.809 708.652 171.946C708.652 171.105 708.816 170.366 709.142 169.73C709.469 169.095 709.929 168.599 710.522 168.244C711.119 167.889 711.818 167.712 712.621 167.712C713.161 167.712 713.663 167.799 714.128 167.973C714.597 168.143 715.005 168.401 715.353 168.745C715.705 169.089 715.978 169.523 716.174 170.045C716.369 170.563 716.467 171.17 716.467 171.866V172.49H709.558V171.083H714.331C714.331 170.757 714.26 170.467 714.118 170.215C713.975 169.963 713.778 169.766 713.526 169.624C713.278 169.478 712.988 169.406 712.658 169.406C712.314 169.406 712.008 169.485 711.742 169.645C711.479 169.801 711.273 170.013 711.124 170.279C710.975 170.542 710.898 170.835 710.895 171.158V172.495C710.895 172.9 710.969 173.25 711.119 173.544C711.271 173.839 711.486 174.066 711.763 174.226C712.04 174.386 712.369 174.466 712.749 174.466C713.001 174.466 713.232 174.43 713.441 174.359C713.651 174.288 713.83 174.182 713.979 174.04C714.128 173.898 714.242 173.724 714.32 173.518L716.419 173.656C716.312 174.161 716.094 174.601 715.763 174.977C715.437 175.35 715.014 175.641 714.496 175.851C713.981 176.057 713.386 176.16 712.711 176.16Z" fill="#FDFAFA" fill-opacity="0.99"/>
<path d="M93.351 157.818C93.2871 157.278 93.0278 156.859 92.5733 156.561C92.1188 156.263 91.5612 156.114 90.9007 156.114C90.4178 156.114 89.9952 156.192 89.633 156.348C89.2743 156.504 88.9938 156.719 88.7913 156.993C88.5925 157.266 88.493 157.577 88.493 157.925C88.493 158.216 88.5623 158.466 88.7008 158.676C88.8428 158.882 89.0239 159.054 89.2441 159.192C89.4643 159.327 89.6951 159.439 89.9366 159.528C90.1781 159.613 90.4 159.683 90.6024 159.736L91.7104 160.034C91.9945 160.109 92.3105 160.212 92.6585 160.343C93.0101 160.474 93.3457 160.654 93.6653 160.881C93.9884 161.105 94.2548 161.392 94.4643 161.744C94.6738 162.096 94.7786 162.527 94.7786 163.038C94.7786 163.628 94.6241 164.161 94.3151 164.636C94.0097 165.112 93.5623 165.49 92.9728 165.771C92.3869 166.051 91.6749 166.192 90.8368 166.192C90.0555 166.192 89.379 166.066 88.8073 165.814C88.2391 165.561 87.7917 165.21 87.465 164.759C87.1418 164.308 86.959 163.784 86.9163 163.188H88.28C88.3155 163.599 88.454 163.94 88.6955 164.21C88.9405 164.477 89.2494 164.675 89.6223 164.807C89.9987 164.935 90.4036 164.999 90.8368 164.999C91.3411 164.999 91.7938 164.917 92.1951 164.754C92.5964 164.587 92.9142 164.356 93.1486 164.061C93.383 163.763 93.5001 163.415 93.5001 163.017C93.5001 162.655 93.3989 162.36 93.1965 162.133C92.9941 161.906 92.7278 161.721 92.3975 161.579C92.0673 161.437 91.7104 161.312 91.3268 161.206L89.9845 160.822C89.1322 160.577 88.4575 160.228 87.9604 159.773C87.4632 159.319 87.2146 158.724 87.2146 157.989C87.2146 157.378 87.3798 156.845 87.71 156.391C88.0438 155.933 88.4913 155.577 89.0523 155.325C89.617 155.07 90.2473 154.942 90.9433 154.942C91.6465 154.942 92.2715 155.068 92.8183 155.32C93.3652 155.569 93.7984 155.909 94.118 156.343C94.4412 156.776 94.6116 157.268 94.6294 157.818H93.351ZM99.7383 157.818V158.884H95.4982V157.818H99.7383ZM96.734 155.858H97.9911V163.656C97.9911 164.011 98.0426 164.278 98.1456 164.455C98.2522 164.629 98.3871 164.746 98.5504 164.807C98.7174 164.864 98.8931 164.892 99.0778 164.892C99.2163 164.892 99.3299 164.885 99.4187 164.871C99.5075 164.853 99.5785 164.839 99.6318 164.828L99.8875 165.957C99.8022 165.989 99.6833 166.021 99.5306 166.053C99.3779 166.089 99.1843 166.107 98.95 166.107C98.5948 166.107 98.2468 166.03 97.9059 165.877C97.5686 165.725 97.288 165.492 97.0643 165.18C96.8441 164.867 96.734 164.473 96.734 163.997V155.858ZM103.437 166.192C102.918 166.192 102.448 166.094 102.025 165.899C101.603 165.7 101.267 165.414 101.019 165.041C100.77 164.665 100.646 164.21 100.646 163.678C100.646 163.209 100.738 162.829 100.923 162.538C101.107 162.243 101.354 162.012 101.663 161.845C101.972 161.678 102.313 161.554 102.686 161.472C103.062 161.387 103.441 161.32 103.82 161.27C104.318 161.206 104.721 161.158 105.03 161.126C105.342 161.091 105.569 161.032 105.711 160.95C105.857 160.869 105.93 160.727 105.93 160.524V160.482C105.93 159.956 105.786 159.548 105.498 159.256C105.214 158.965 104.783 158.82 104.204 158.82C103.604 158.82 103.133 158.951 102.792 159.214C102.452 159.477 102.212 159.757 102.073 160.055L100.88 159.629C101.093 159.132 101.377 158.745 101.732 158.468C102.091 158.187 102.482 157.992 102.904 157.882C103.33 157.768 103.749 157.712 104.161 157.712C104.424 157.712 104.726 157.744 105.067 157.808C105.411 157.868 105.743 157.994 106.063 158.186C106.386 158.377 106.654 158.667 106.867 159.054C107.08 159.441 107.187 159.96 107.187 160.609V166H105.93V164.892H105.866C105.781 165.07 105.639 165.26 105.44 165.462C105.241 165.664 104.976 165.837 104.646 165.979C104.316 166.121 103.913 166.192 103.437 166.192ZM103.629 165.062C104.126 165.062 104.545 164.965 104.886 164.77C105.23 164.574 105.49 164.322 105.664 164.013C105.841 163.704 105.93 163.379 105.93 163.038V161.888C105.877 161.952 105.759 162.01 105.578 162.064C105.401 162.113 105.195 162.158 104.96 162.197C104.73 162.232 104.504 162.264 104.284 162.293C104.067 162.317 103.891 162.339 103.757 162.357C103.43 162.399 103.124 162.468 102.84 162.564C102.56 162.657 102.333 162.797 102.159 162.985C101.988 163.17 101.903 163.422 101.903 163.741C101.903 164.178 102.064 164.509 102.388 164.732C102.714 164.952 103.128 165.062 103.629 165.062ZM109.398 169.068C109.185 169.068 108.995 169.05 108.828 169.015C108.661 168.983 108.546 168.951 108.482 168.919L108.802 167.811C109.107 167.889 109.377 167.918 109.611 167.896C109.846 167.875 110.053 167.77 110.234 167.582C110.419 167.397 110.588 167.097 110.74 166.682L110.975 166.043L107.949 157.818H109.313L111.571 164.338H111.657L113.915 157.818H115.279L111.806 167.193C111.65 167.616 111.456 167.966 111.225 168.243C110.994 168.523 110.726 168.731 110.421 168.866C110.119 169.001 109.778 169.068 109.398 169.068ZM128.906 158.5H127.585C127.507 158.12 127.37 157.786 127.175 157.499C126.983 157.211 126.748 156.969 126.471 156.774C126.198 156.575 125.894 156.426 125.561 156.327C125.227 156.227 124.879 156.178 124.516 156.178C123.856 156.178 123.258 156.344 122.721 156.678C122.189 157.012 121.764 157.504 121.448 158.154C121.136 158.804 120.98 159.601 120.98 160.545C120.98 161.49 121.136 162.287 121.448 162.937C121.764 163.587 122.189 164.079 122.721 164.413C123.258 164.746 123.856 164.913 124.516 164.913C124.879 164.913 125.227 164.864 125.561 164.764C125.894 164.665 126.198 164.517 126.471 164.322C126.748 164.123 126.983 163.88 127.175 163.592C127.37 163.301 127.507 162.967 127.585 162.591H128.906C128.806 163.148 128.625 163.647 128.362 164.088C128.1 164.528 127.773 164.903 127.382 165.212C126.992 165.517 126.553 165.75 126.067 165.909C125.584 166.069 125.067 166.149 124.516 166.149C123.586 166.149 122.759 165.922 122.034 165.467C121.31 165.013 120.74 164.366 120.324 163.528C119.909 162.69 119.701 161.696 119.701 160.545C119.701 159.395 119.909 158.401 120.324 157.562C120.74 156.724 121.31 156.078 122.034 155.624C122.759 155.169 123.586 154.942 124.516 154.942C125.067 154.942 125.584 155.022 126.067 155.181C126.553 155.341 126.992 155.576 127.382 155.885C127.773 156.19 128.1 156.563 128.362 157.003C128.625 157.44 128.806 157.939 128.906 158.5ZM133.594 166.17C132.855 166.17 132.207 165.995 131.65 165.643C131.096 165.292 130.662 164.8 130.35 164.168C130.041 163.536 129.886 162.797 129.886 161.952C129.886 161.099 130.041 160.355 130.35 159.72C130.662 159.084 131.096 158.591 131.65 158.239C132.207 157.887 132.855 157.712 133.594 157.712C134.332 157.712 134.979 157.887 135.533 158.239C136.09 158.591 136.523 159.084 136.832 159.72C137.145 160.355 137.301 161.099 137.301 161.952C137.301 162.797 137.145 163.536 136.832 164.168C136.523 164.8 136.09 165.292 135.533 165.643C134.979 165.995 134.332 166.17 133.594 166.17ZM133.594 165.041C134.155 165.041 134.616 164.897 134.979 164.61C135.341 164.322 135.609 163.944 135.783 163.475C135.957 163.006 136.044 162.499 136.044 161.952C136.044 161.405 135.957 160.895 135.783 160.423C135.609 159.951 135.341 159.569 134.979 159.278C134.616 158.987 134.155 158.841 133.594 158.841C133.033 158.841 132.571 158.987 132.209 159.278C131.847 159.569 131.579 159.951 131.404 160.423C131.23 160.895 131.143 161.405 131.143 161.952C131.143 162.499 131.23 163.006 131.404 163.475C131.579 163.944 131.847 164.322 132.209 164.61C132.571 164.897 133.033 165.041 133.594 165.041ZM139.877 161.078V166H138.62V157.818H139.835V159.097H139.941C140.133 158.681 140.424 158.347 140.815 158.095C141.205 157.839 141.71 157.712 142.327 157.712C142.881 157.712 143.366 157.825 143.782 158.053C144.197 158.276 144.52 158.617 144.751 159.075C144.982 159.53 145.097 160.105 145.097 160.801V166H143.84V160.886C143.84 160.244 143.673 159.743 143.34 159.384C143.006 159.022 142.548 158.841 141.965 158.841C141.564 158.841 141.205 158.928 140.889 159.102C140.577 159.276 140.33 159.53 140.149 159.864C139.968 160.197 139.877 160.602 139.877 161.078ZM148.052 161.078V166H146.795V157.818H148.009V159.097H148.116C148.307 158.681 148.598 158.347 148.989 158.095C149.38 157.839 149.884 157.712 150.502 157.712C151.056 157.712 151.541 157.825 151.956 158.053C152.372 158.276 152.695 158.617 152.926 159.075C153.156 159.53 153.272 160.105 153.272 160.801V166H152.015V160.886C152.015 160.244 151.848 159.743 151.514 159.384C151.18 159.022 150.722 158.841 150.14 158.841C149.738 158.841 149.38 158.928 149.064 159.102C148.751 159.276 148.504 159.53 148.323 159.864C148.142 160.197 148.052 160.602 148.052 161.078ZM158.399 166.17C157.611 166.17 156.931 165.996 156.359 165.648C155.791 165.297 155.352 164.807 155.044 164.178C154.738 163.546 154.585 162.811 154.585 161.973C154.585 161.135 154.738 160.396 155.044 159.757C155.352 159.114 155.782 158.614 156.333 158.255C156.887 157.893 157.533 157.712 158.271 157.712C158.698 157.712 159.118 157.783 159.534 157.925C159.949 158.067 160.328 158.298 160.669 158.617C161.009 158.933 161.281 159.352 161.483 159.874C161.686 160.396 161.787 161.039 161.787 161.803V162.335H155.48V161.249H160.509C160.509 160.787 160.416 160.375 160.232 160.013C160.051 159.651 159.791 159.365 159.454 159.155C159.12 158.946 158.726 158.841 158.271 158.841C157.771 158.841 157.338 158.965 156.972 159.214C156.61 159.459 156.331 159.778 156.135 160.173C155.94 160.567 155.843 160.989 155.843 161.44V162.165C155.843 162.783 155.949 163.306 156.162 163.736C156.379 164.162 156.679 164.487 157.062 164.711C157.446 164.931 157.892 165.041 158.399 165.041C158.73 165.041 159.028 164.995 159.294 164.903C159.564 164.807 159.797 164.665 159.992 164.477C160.187 164.285 160.338 164.047 160.445 163.763L161.659 164.104C161.531 164.516 161.317 164.878 161.015 165.19C160.713 165.499 160.34 165.741 159.896 165.915C159.452 166.085 158.953 166.17 158.399 166.17ZM166.423 166.17C165.656 166.17 164.996 165.989 164.442 165.627C163.888 165.265 163.462 164.766 163.163 164.13C162.865 163.495 162.716 162.768 162.716 161.952C162.716 161.121 162.869 160.387 163.174 159.752C163.483 159.113 163.913 158.614 164.463 158.255C165.017 157.893 165.663 157.712 166.402 157.712C166.977 157.712 167.496 157.818 167.957 158.031C168.419 158.244 168.797 158.543 169.092 158.926C169.387 159.31 169.57 159.757 169.641 160.268H168.383C168.288 159.896 168.075 159.565 167.744 159.278C167.418 158.987 166.977 158.841 166.423 158.841C165.933 158.841 165.504 158.969 165.134 159.224C164.768 159.477 164.483 159.833 164.277 160.295C164.074 160.753 163.973 161.291 163.973 161.909C163.973 162.541 164.072 163.092 164.271 163.56C164.474 164.029 164.758 164.393 165.124 164.652C165.493 164.912 165.926 165.041 166.423 165.041C166.75 165.041 167.046 164.984 167.313 164.871C167.579 164.757 167.805 164.594 167.989 164.381C168.174 164.168 168.305 163.912 168.383 163.614H169.641C169.57 164.097 169.394 164.532 169.113 164.919C168.836 165.302 168.469 165.608 168.011 165.835C167.556 166.059 167.027 166.17 166.423 166.17ZM174.437 157.818V158.884H170.196V157.818H174.437ZM171.432 155.858H172.689V163.656C172.689 164.011 172.741 164.278 172.844 164.455C172.95 164.629 173.085 164.746 173.249 164.807C173.416 164.864 173.591 164.892 173.776 164.892C173.915 164.892 174.028 164.885 174.117 164.871C174.206 164.853 174.277 164.839 174.33 164.828L174.586 165.957C174.5 165.989 174.382 166.021 174.229 166.053C174.076 166.089 173.883 166.107 173.648 166.107C173.293 166.107 172.945 166.03 172.604 165.877C172.267 165.725 171.986 165.492 171.763 165.18C171.542 164.867 171.432 164.473 171.432 163.997V155.858ZM179.07 166.17C178.282 166.17 177.602 165.996 177.03 165.648C176.462 165.297 176.023 164.807 175.714 164.178C175.409 163.546 175.256 162.811 175.256 161.973C175.256 161.135 175.409 160.396 175.714 159.757C176.023 159.114 176.453 158.614 177.003 158.255C177.557 157.893 178.204 157.712 178.942 157.712C179.368 157.712 179.789 157.783 180.205 157.925C180.62 158.067 180.998 158.298 181.339 158.617C181.68 158.933 181.952 159.352 182.154 159.874C182.357 160.396 182.458 161.039 182.458 161.803V162.335H176.151V161.249H181.179C181.179 160.787 181.087 160.375 180.902 160.013C180.721 159.651 180.462 159.365 180.125 159.155C179.791 158.946 179.397 158.841 178.942 158.841C178.441 158.841 178.008 158.965 177.642 159.214C177.28 159.459 177.002 159.778 176.806 160.173C176.611 160.567 176.513 160.989 176.513 161.44V162.165C176.513 162.783 176.62 163.306 176.833 163.736C177.049 164.162 177.35 164.487 177.733 164.711C178.117 164.931 178.562 165.041 179.07 165.041C179.4 165.041 179.699 164.995 179.965 164.903C180.235 164.807 180.467 164.665 180.663 164.477C180.858 164.285 181.009 164.047 181.115 163.763L182.33 164.104C182.202 164.516 181.987 164.878 181.685 165.19C181.384 165.499 181.011 165.741 180.567 165.915C180.123 166.085 179.624 166.17 179.07 166.17ZM186.86 166.17C186.178 166.17 185.576 165.998 185.054 165.654C184.532 165.306 184.123 164.816 183.829 164.184C183.534 163.548 183.387 162.797 183.387 161.93C183.387 161.071 183.534 160.325 183.829 159.693C184.123 159.061 184.534 158.573 185.059 158.228C185.585 157.884 186.192 157.712 186.881 157.712C187.414 157.712 187.834 157.8 188.143 157.978C188.456 158.152 188.694 158.351 188.857 158.575C189.024 158.795 189.154 158.976 189.246 159.118H189.352V155.091H190.61V166H189.395V164.743H189.246C189.154 164.892 189.022 165.08 188.852 165.308C188.681 165.531 188.438 165.732 188.122 165.909C187.806 166.083 187.385 166.17 186.86 166.17ZM187.03 165.041C187.534 165.041 187.96 164.91 188.308 164.647C188.656 164.381 188.921 164.013 189.102 163.544C189.283 163.072 189.374 162.527 189.374 161.909C189.374 161.298 189.285 160.764 189.107 160.306C188.93 159.844 188.667 159.485 188.319 159.23C187.971 158.971 187.541 158.841 187.03 158.841C186.497 158.841 186.053 158.978 185.698 159.251C185.347 159.521 185.082 159.888 184.905 160.354C184.731 160.815 184.644 161.334 184.644 161.909C184.644 162.491 184.732 163.021 184.91 163.496C185.091 163.969 185.357 164.345 185.709 164.626C186.064 164.903 186.504 165.041 187.03 165.041ZM87.0406 184V173.091H90.8545C91.6144 173.091 92.2412 173.222 92.7348 173.485C93.2284 173.744 93.596 174.094 93.8374 174.534C94.0789 174.971 94.1996 175.456 94.1996 175.989C94.1996 176.457 94.1162 176.844 93.9493 177.15C93.7859 177.455 93.5693 177.697 93.2994 177.874C93.0331 178.052 92.7437 178.183 92.4312 178.268V178.375C92.765 178.396 93.1006 178.513 93.4379 178.727C93.7753 178.94 94.0576 179.245 94.2849 179.643C94.5121 180.04 94.6258 180.527 94.6258 181.102C94.6258 181.649 94.5015 182.141 94.2529 182.578C94.0043 183.015 93.6119 183.361 93.0757 183.616C92.5395 183.872 91.8417 184 90.9823 184H87.0406ZM88.3616 182.828H90.9823C91.8452 182.828 92.4578 182.661 92.82 182.327C93.1858 181.99 93.3687 181.582 93.3687 181.102C93.3687 180.733 93.2746 180.392 93.0864 180.08C92.8982 179.763 92.63 179.511 92.282 179.323C91.934 179.131 91.5221 179.036 91.0462 179.036H88.3616V182.828ZM88.3616 177.885H90.8119C91.2096 177.885 91.5683 177.807 91.8879 177.651C92.211 177.494 92.4667 177.274 92.6549 176.99C92.8467 176.706 92.9425 176.372 92.9425 175.989C92.9425 175.509 92.7756 175.103 92.4418 174.769C92.108 174.431 91.5789 174.263 90.8545 174.263H88.3616V177.885ZM99.4564 184.17C98.668 184.17 97.988 183.996 97.4162 183.648C96.848 183.297 96.4095 182.807 96.1005 182.178C95.7951 181.546 95.6424 180.811 95.6424 179.973C95.6424 179.135 95.7951 178.396 96.1005 177.757C96.4095 177.114 96.8392 176.614 97.3896 176.255C97.9436 175.893 98.5899 175.712 99.3285 175.712C99.7547 175.712 100.175 175.783 100.591 175.925C101.006 176.067 101.385 176.298 101.726 176.617C102.066 176.933 102.338 177.352 102.541 177.874C102.743 178.396 102.844 179.039 102.844 179.803V180.335H96.5373V179.249H101.566C101.566 178.787 101.473 178.375 101.289 178.013C101.108 177.651 100.848 177.365 100.511 177.155C100.177 176.946 99.7831 176.841 99.3285 176.841C98.8278 176.841 98.3946 176.965 98.0288 177.214C97.6666 177.459 97.3878 177.778 97.1925 178.173C96.9972 178.567 96.8995 178.989 96.8995 179.44V180.165C96.8995 180.783 97.0061 181.306 97.2191 181.736C97.4358 182.162 97.7358 182.487 98.1194 182.711C98.5029 182.931 98.9485 183.041 99.4564 183.041C99.7866 183.041 100.085 182.995 100.351 182.903C100.621 182.807 100.854 182.665 101.049 182.477C101.244 182.285 101.395 182.047 101.502 181.763L102.716 182.104C102.588 182.516 102.374 182.878 102.072 183.19C101.77 183.499 101.397 183.741 100.953 183.915C100.509 184.085 100.01 184.17 99.4564 184.17ZM107.946 184V173.091H114.487V174.263H109.267V177.949H113.997V179.121H109.267V184H107.946ZM115.979 184V175.818H117.236V184H115.979ZM116.618 174.455C116.373 174.455 116.162 174.371 115.984 174.204C115.81 174.037 115.723 173.837 115.723 173.602C115.723 173.368 115.81 173.167 115.984 173C116.162 172.833 116.373 172.75 116.618 172.75C116.863 172.75 117.073 172.833 117.247 173C117.424 173.167 117.513 173.368 117.513 173.602C117.513 173.837 117.424 174.037 117.247 174.204C117.073 174.371 116.863 174.455 116.618 174.455ZM118.938 184V175.818H120.153V177.054H120.238C120.387 176.649 120.657 176.321 121.048 176.069C121.438 175.816 121.879 175.69 122.369 175.69C122.461 175.69 122.577 175.692 122.715 175.696C122.854 175.699 122.958 175.705 123.029 175.712V176.99C122.987 176.979 122.889 176.963 122.736 176.942C122.587 176.917 122.429 176.905 122.262 176.905C121.865 176.905 121.509 176.988 121.197 177.155C120.888 177.319 120.643 177.546 120.462 177.837C120.284 178.125 120.196 178.453 120.196 178.822V184H118.938ZM129.715 177.651L128.586 177.97C128.515 177.782 128.41 177.599 128.271 177.422C128.136 177.24 127.952 177.091 127.717 176.974C127.483 176.857 127.183 176.798 126.817 176.798C126.317 176.798 125.899 176.914 125.565 177.145C125.235 177.372 125.07 177.661 125.07 178.013C125.07 178.325 125.184 178.572 125.411 178.753C125.638 178.934 125.993 179.085 126.476 179.206L127.691 179.504C128.422 179.682 128.967 179.953 129.326 180.319C129.685 180.681 129.864 181.148 129.864 181.72C129.864 182.189 129.729 182.608 129.459 182.977C129.193 183.347 128.82 183.638 128.341 183.851C127.861 184.064 127.304 184.17 126.668 184.17C125.834 184.17 125.143 183.989 124.596 183.627C124.049 183.265 123.703 182.736 123.557 182.04L124.75 181.741C124.864 182.182 125.079 182.512 125.395 182.732C125.715 182.952 126.132 183.062 126.647 183.062C127.233 183.062 127.698 182.938 128.042 182.69C128.39 182.437 128.564 182.136 128.564 181.784C128.564 181.5 128.465 181.262 128.266 181.07C128.067 180.875 127.762 180.729 127.35 180.634L125.986 180.314C125.237 180.136 124.687 179.861 124.335 179.488C123.987 179.112 123.813 178.641 123.813 178.077C123.813 177.615 123.943 177.207 124.202 176.852C124.465 176.496 124.822 176.218 125.272 176.015C125.727 175.813 126.242 175.712 126.817 175.712C127.627 175.712 128.263 175.889 128.724 176.244C129.189 176.599 129.52 177.068 129.715 177.651ZM134.715 175.818V176.884H130.475V175.818H134.715ZM131.71 173.858H132.968V181.656C132.968 182.011 133.019 182.278 133.122 182.455C133.229 182.629 133.363 182.746 133.527 182.807C133.694 182.864 133.869 182.892 134.054 182.892C134.193 182.892 134.306 182.885 134.395 182.871C134.484 182.853 134.555 182.839 134.608 182.828L134.864 183.957C134.779 183.989 134.66 184.021 134.507 184.053C134.354 184.089 134.161 184.107 133.926 184.107C133.571 184.107 133.223 184.03 132.882 183.877C132.545 183.725 132.264 183.492 132.041 183.18C131.82 182.867 131.71 182.473 131.71 181.997V173.858ZM139.198 174.263V173.091H147.38V174.263H143.95V184H142.629V174.263H139.198ZM150.786 184.17C150.047 184.17 149.399 183.995 148.842 183.643C148.288 183.292 147.854 182.8 147.542 182.168C147.233 181.536 147.078 180.797 147.078 179.952C147.078 179.099 147.233 178.355 147.542 177.72C147.854 177.084 148.288 176.591 148.842 176.239C149.399 175.887 150.047 175.712 150.786 175.712C151.524 175.712 152.171 175.887 152.725 176.239C153.282 176.591 153.715 177.084 154.024 177.72C154.337 178.355 154.493 179.099 154.493 179.952C154.493 180.797 154.337 181.536 154.024 182.168C153.715 182.8 153.282 183.292 152.725 183.643C152.171 183.995 151.524 184.17 150.786 184.17ZM150.786 183.041C151.347 183.041 151.808 182.897 152.171 182.61C152.533 182.322 152.801 181.944 152.975 181.475C153.149 181.006 153.236 180.499 153.236 179.952C153.236 179.405 153.149 178.895 152.975 178.423C152.801 177.951 152.533 177.569 152.171 177.278C151.808 176.987 151.347 176.841 150.786 176.841C150.225 176.841 149.763 176.987 149.401 177.278C149.039 177.569 148.77 177.951 148.596 178.423C148.422 178.895 148.335 179.405 148.335 179.952C148.335 180.499 148.422 181.006 148.596 181.475C148.77 181.944 149.039 182.322 149.401 182.61C149.763 182.897 150.225 183.041 150.786 183.041ZM159.601 184V173.091H160.922V178.503H161.05L165.951 173.091H167.677L163.096 178.013L167.677 184H166.079L162.286 178.929L160.922 180.463V184H159.601ZM169.873 179.078V184H168.616V175.818H169.83V177.097H169.937C170.129 176.681 170.42 176.347 170.811 176.095C171.201 175.839 171.705 175.712 172.323 175.712C172.877 175.712 173.362 175.825 173.778 176.053C174.193 176.276 174.516 176.617 174.747 177.075C174.978 177.53 175.093 178.105 175.093 178.801V184H173.836V178.886C173.836 178.244 173.669 177.743 173.335 177.384C173.002 177.022 172.544 176.841 171.961 176.841C171.56 176.841 171.201 176.928 170.885 177.102C170.573 177.276 170.326 177.53 170.145 177.864C169.964 178.197 169.873 178.602 169.873 179.078ZM180.114 184.17C179.376 184.17 178.728 183.995 178.17 183.643C177.616 183.292 177.183 182.8 176.87 182.168C176.561 181.536 176.407 180.797 176.407 179.952C176.407 179.099 176.561 178.355 176.87 177.72C177.183 177.084 177.616 176.591 178.17 176.239C178.728 175.887 179.376 175.712 180.114 175.712C180.853 175.712 181.499 175.887 182.053 176.239C182.611 176.591 183.044 177.084 183.353 177.72C183.665 178.355 183.822 179.099 183.822 179.952C183.822 180.797 183.665 181.536 183.353 182.168C183.044 182.8 182.611 183.292 182.053 183.643C181.499 183.995 180.853 184.17 180.114 184.17ZM180.114 183.041C180.675 183.041 181.137 182.897 181.499 182.61C181.861 182.322 182.13 181.944 182.304 181.475C182.478 181.006 182.565 180.499 182.565 179.952C182.565 179.405 182.478 178.895 182.304 178.423C182.13 177.951 181.861 177.569 181.499 177.278C181.137 176.987 180.675 176.841 180.114 176.841C179.553 176.841 179.092 176.987 178.729 177.278C178.367 177.569 178.099 177.951 177.925 178.423C177.751 178.895 177.664 179.405 177.664 179.952C177.664 180.499 177.751 181.006 177.925 181.475C178.099 181.944 178.367 182.322 178.729 182.61C179.092 182.897 179.553 183.041 180.114 183.041ZM186.716 184L184.223 175.818H185.544L187.313 182.082H187.398L189.145 175.818H190.487L192.213 182.061H192.298L194.067 175.818H195.388L192.895 184H191.659L189.869 177.714H189.742L187.952 184H186.716Z" fill="white"/>
<rect x="40" y="4" width="59.375" height="30" rx="3" fill="#404040"/>
<rect x="40.5" y="4.5" width="58.375" height="29" rx="2.5" stroke="black" stroke-opacity="0.14902"/>
<path d="M51.3438 16C51.2969 15.6042 51.1068 15.2969 50.7734 15.0781C50.4401 14.8594 50.0313 14.75 49.5469 14.75C49.1927 14.75 48.8828 14.8073 48.6172 14.9219C48.3542 15.0365 48.1484 15.194 48 15.3945C47.8542 15.5951 47.7813 15.8229 47.7813 16.0781C47.7813 16.2917 47.832 16.4753 47.9336 16.6289C48.0378 16.7799 48.1706 16.9062 48.332 17.0078C48.4935 17.1068 48.6628 17.1888 48.8398 17.2539C49.0169 17.3164 49.1797 17.3672 49.3281 17.4062L50.1406 17.625C50.349 17.6797 50.5807 17.7552 50.8359 17.8516C51.0938 17.9479 51.3398 18.0794 51.5742 18.2461C51.8112 18.4102 52.0065 18.6211 52.1602 18.8789C52.3138 19.1367 52.3906 19.4531 52.3906 19.8281C52.3906 20.2604 52.2773 20.651 52.0508 21C51.8268 21.349 51.4987 21.6263 51.0664 21.832C50.6367 22.0378 50.1146 22.1406 49.5 22.1406C48.9271 22.1406 48.431 22.0482 48.0117 21.8633C47.5951 21.6784 47.2669 21.4206 47.0273 21.0898C46.7904 20.7591 46.6563 20.375 46.625 19.9375H47.625C47.651 20.2396 47.7526 20.4896 47.9297 20.6875C48.1094 20.8828 48.3359 21.0286 48.6094 21.125C48.8854 21.2187 49.1823 21.2656 49.5 21.2656C49.8698 21.2656 50.2018 21.2057 50.4961 21.0859C50.7904 20.9635 51.0234 20.7943 51.1953 20.5781C51.3672 20.3594 51.4531 20.1042 51.4531 19.8125C51.4531 19.5469 51.3789 19.3307 51.2305 19.1641C51.082 18.9974 50.8867 18.862 50.6445 18.7578C50.4023 18.6536 50.1406 18.5625 49.8594 18.4844L48.875 18.2031C48.25 18.0234 47.7552 17.7669 47.3906 17.4336C47.026 17.1003 46.8438 16.6641 46.8438 16.125C46.8438 15.6771 46.9648 15.2865 47.207 14.9531C47.4518 14.6172 47.7799 14.3568 48.1914 14.1719C48.6055 13.9844 49.0677 13.8906 49.5781 13.8906C50.0938 13.8906 50.5521 13.9831 50.9531 14.168C51.3542 14.3503 51.6719 14.6003 51.9062 14.918C52.1432 15.2357 52.2682 15.5964 52.2813 16H51.3438ZM56.374 22.125C55.7959 22.125 55.2972 21.9974 54.8779 21.7422C54.4613 21.4844 54.1396 21.125 53.9131 20.6641C53.6891 20.2005 53.5771 19.6615 53.5771 19.0469C53.5771 18.4323 53.6891 17.8906 53.9131 17.4219C54.1396 16.9505 54.4548 16.5833 54.8584 16.3203C55.2646 16.0547 55.7386 15.9219 56.2803 15.9219C56.5928 15.9219 56.9014 15.974 57.2061 16.0781C57.5107 16.1823 57.7881 16.3516 58.0381 16.5859C58.2881 16.8177 58.4873 17.125 58.6357 17.5078C58.7842 17.8906 58.8584 18.362 58.8584 18.9219V19.3125H54.2334V18.5156H57.9209C57.9209 18.1771 57.8532 17.875 57.7178 17.6094C57.585 17.3437 57.3949 17.1341 57.1475 16.9805C56.9027 16.8268 56.6136 16.75 56.2803 16.75C55.9131 16.75 55.5954 16.8411 55.3271 17.0234C55.0615 17.2031 54.8571 17.4375 54.7139 17.7266C54.5706 18.0156 54.499 18.3255 54.499 18.6562V19.1875C54.499 19.6406 54.5771 20.0247 54.7334 20.3398C54.8923 20.6523 55.1123 20.8906 55.3936 21.0547C55.6748 21.2161 56.0016 21.2969 56.374 21.2969C56.6162 21.2969 56.835 21.263 57.0303 21.1953C57.2282 21.125 57.3988 21.0208 57.542 20.8828C57.6852 20.7422 57.7959 20.5677 57.874 20.3594L58.7646 20.6094C58.6709 20.9115 58.5133 21.1771 58.292 21.4062C58.0706 21.6328 57.7972 21.8099 57.4717 21.9375C57.1462 22.0625 56.7803 22.125 56.374 22.125ZM62.6982 22.125C62.1357 22.125 61.6514 21.9922 61.2451 21.7266C60.8389 21.4609 60.5264 21.0951 60.3076 20.6289C60.0889 20.1628 59.9795 19.6302 59.9795 19.0312C59.9795 18.4219 60.0915 17.8841 60.3154 17.418C60.542 16.9492 60.8571 16.5833 61.2607 16.3203C61.667 16.0547 62.141 15.9219 62.6826 15.9219C63.1045 15.9219 63.4847 16 63.8232 16.1562C64.1618 16.3125 64.4391 16.5312 64.6553 16.8125C64.8714 17.0937 65.0055 17.4219 65.0576 17.7969H64.1357C64.0654 17.5234 63.9092 17.2812 63.667 17.0703C63.4274 16.8568 63.1045 16.75 62.6982 16.75C62.3389 16.75 62.0238 16.8437 61.7529 17.0312C61.4847 17.2161 61.2751 17.4779 61.124 17.8164C60.9756 18.1523 60.9014 18.5469 60.9014 19C60.9014 19.4635 60.9743 19.8672 61.1201 20.2109C61.2686 20.5547 61.4769 20.8216 61.7451 21.0117C62.016 21.2018 62.3337 21.2969 62.6982 21.2969C62.9378 21.2969 63.1553 21.2552 63.3506 21.1719C63.5459 21.0885 63.7113 20.9688 63.8467 20.8125C63.9821 20.6562 64.0785 20.4687 64.1357 20.25H65.0576C65.0055 20.6042 64.8766 20.9232 64.6709 21.207C64.4678 21.4883 64.1982 21.7122 63.8623 21.8789C63.529 22.043 63.141 22.125 62.6982 22.125ZM69.0146 16V16.7812H65.9053V16H69.0146ZM66.8115 14.5625H67.7334V20.2812C67.7334 20.5417 67.7712 20.737 67.8467 20.8672C67.9248 20.9948 68.0238 21.0807 68.1436 21.125C68.266 21.1667 68.3949 21.1875 68.5303 21.1875C68.6318 21.1875 68.7152 21.1823 68.7803 21.1719C68.8454 21.1589 68.8975 21.1484 68.9365 21.1406L69.124 21.9687C69.0615 21.9922 68.9743 22.0156 68.8623 22.0391C68.7503 22.0651 68.6084 22.0781 68.4365 22.0781C68.1761 22.0781 67.9209 22.0221 67.6709 21.9102C67.4235 21.7982 67.2178 21.6276 67.0537 21.3984C66.8923 21.1693 66.8115 20.8802 66.8115 20.5312V14.5625ZM70.4014 22V16H71.3232V22H70.4014ZM70.8701 15C70.6904 15 70.5355 14.9388 70.4053 14.8164C70.2777 14.694 70.2139 14.5469 70.2139 14.375C70.2139 14.2031 70.2777 14.056 70.4053 13.9336C70.5355 13.8112 70.6904 13.75 70.8701 13.75C71.0498 13.75 71.2035 13.8112 71.3311 13.9336C71.4613 14.056 71.5264 14.2031 71.5264 14.375C71.5264 14.5469 71.4613 14.694 71.3311 14.8164C71.2035 14.9388 71.0498 15 70.8701 15ZM75.4492 22.125C74.9076 22.125 74.4323 21.9961 74.0234 21.7383C73.6172 21.4805 73.2995 21.1198 73.0703 20.6562C72.8438 20.1927 72.7305 19.651 72.7305 19.0312C72.7305 18.4062 72.8438 17.8607 73.0703 17.3945C73.2995 16.9284 73.6172 16.5664 74.0234 16.3086C74.4323 16.0508 74.9076 15.9219 75.4492 15.9219C75.9909 15.9219 76.4648 16.0508 76.8711 16.3086C77.2799 16.5664 77.5977 16.9284 77.8242 17.3945C78.0534 17.8607 78.168 18.4062 78.168 19.0312C78.168 19.651 78.0534 20.1927 77.8242 20.6562C77.5977 21.1198 77.2799 21.4805 76.8711 21.7383C76.4648 21.9961 75.9909 22.125 75.4492 22.125ZM75.4492 21.2969C75.8607 21.2969 76.1992 21.1914 76.4648 20.9805C76.7305 20.7695 76.9271 20.4922 77.0547 20.1484C77.1823 19.8047 77.2461 19.4323 77.2461 19.0312C77.2461 18.6302 77.1823 18.2565 77.0547 17.9102C76.9271 17.5638 76.7305 17.2839 76.4648 17.0703C76.1992 16.8568 75.8607 16.75 75.4492 16.75C75.0378 16.75 74.6992 16.8568 74.4336 17.0703C74.168 17.2839 73.9714 17.5638 73.8438 17.9102C73.7161 18.2565 73.6523 18.6302 73.6523 19.0312C73.6523 19.4323 73.7161 19.8047 73.8438 20.1484C73.9714 20.4922 74.168 20.7695 74.4336 20.9805C74.6992 21.1914 75.0378 21.2969 75.4492 21.2969ZM80.4971 18.3906V22H79.5752V16H80.4658V16.9375H80.5439C80.6846 16.6328 80.8981 16.388 81.1846 16.2031C81.471 16.0156 81.8408 15.9219 82.2939 15.9219C82.7002 15.9219 83.0557 16.0052 83.3604 16.1719C83.665 16.3359 83.902 16.5859 84.0713 16.9219C84.2406 17.2552 84.3252 17.6771 84.3252 18.1875V22H83.4033V18.25C83.4033 17.7786 83.2809 17.4115 83.0361 17.1484C82.7913 16.8828 82.4554 16.75 82.0283 16.75C81.734 16.75 81.471 16.8138 81.2393 16.9414C81.0101 17.069 80.8291 17.2552 80.6963 17.5C80.5635 17.7448 80.4971 18.0417 80.4971 18.3906ZM91.9004 14V22H90.9316V15.0156H90.8848L88.9316 16.3125V15.3281L90.9316 14H91.9004Z" fill="white"/>
<defs>
<filter id="filter0_d_0_1" x="308" y="152" width="453" height="50" filterUnits="userSpaceOnUse" color-interpolation-filters="sRGB">
<feFlood flood-opacity="0" result="BackgroundImageFix"/>
<feColorMatrix in="SourceAlpha" type="matrix" values="0 0 0 0 0 0 0 0 0 0 0 0 0 0 0 0 0 0 127 0" result="hardAlpha"/>
<feOffset dy="4"/>
<feGaussianBlur stdDeviation="2"/>
<feComposite in2="hardAlpha" operator="out"/>
<feColorMatrix type="matrix" values="0 0 0 0 0 0 0 0 0 0 0 0 0 0 0 0 0 0 0.25 0"/>
<feBlend mode="normal" in2="BackgroundImageFix" result="effect1_dropShadow_0_1"/>
<feBlend mode="normal" in="SourceGraphic" in2="effect1_dropShadow_0_1" result="shape"/>
</filter>
</defs>
</svg>
